# Blender v2.79 (sub 0) OBJ File: 'terrain.blend'
# www.blender.org
mtllib randomrocks.mtl
o Sphere.006_Sphere.003
v 24.498569 2.713393 17.820269
v 22.773972 0.486577 18.536648
v 25.019102 -1.414070 17.284197
v 24.104422 -2.108418 16.303616
v 21.427227 0.718593 15.565650
v 21.483053 -0.247583 17.402229
v 22.600096 -2.319280 15.636049
v 22.693459 -1.883722 14.130146
v 22.704227 -1.874926 14.108235
v 25.110752 -1.322618 14.388762
v 22.133526 -0.211664 13.601677
v 22.690838 -1.865060 14.103502
v 22.982531 2.813435 14.764442
v 24.216562 3.421116 16.017830
v 25.758522 1.932059 13.819571
v 23.391714 1.893720 13.302822
v 25.671694 1.871917 13.702276
v 26.602396 0.329114 16.606441
v 26.499916 -0.273485 16.617670
v 25.786116 1.897708 13.819263
v 25.487545 -1.033591 14.383014
v 25.736170 1.824926 13.724945
v -5.914318 0.243473 -21.477272
v -7.017479 0.346783 -22.073738
v -6.331490 0.018928 -23.230545
v -6.511032 0.549675 -23.567535
v -6.704784 1.706488 -22.315228
v -7.287601 1.029372 -22.414070
v -6.869673 1.170769 -23.609344
v -6.408735 1.665385 -23.681656
v -6.398602 1.670136 -23.682648
v -5.601637 0.947864 -23.653885
v -6.174812 2.097037 -23.053783
v -6.400059 1.675998 -23.678223
v -5.658310 1.669530 -21.767448
v -5.456253 0.955821 -21.452770
v -4.700222 1.157602 -22.527500
v -5.340202 1.978220 -22.395130
v -4.710546 1.216275 -22.560997
v -5.365784 -0.088050 -22.804268
v -5.504837 -0.100858 -23.029140
v -4.697250 1.147948 -22.543686
v -5.430256 0.863632 -23.577614
v -4.703411 1.188121 -22.582111
v -7.684053 1.110546 -22.339237
v -6.666494 0.825866 -23.044449
v -10.399136 -0.459319 -22.666107
v -10.142429 1.721998 -26.201515
v -10.836834 0.707044 -25.748951
v -6.352217 1.884071 -25.691086
v -6.070183 0.765824 -26.076828
v -6.109726 0.738292 -26.112617
v -7.353584 2.595349 -25.910717
v -7.674267 1.005794 -26.867233
v -9.113991 2.998594 -24.501526
v -7.556412 2.683918 -25.837589
v -9.506134 2.567728 -25.734436
v -7.174095 -1.436647 -25.864178
v -9.191006 -1.001905 -22.299995
v -10.133762 -0.518663 -22.449455
v -10.369167 -0.507407 -22.660145
v -9.237831 -2.073842 -24.044132
v -8.432343 -1.993572 -23.134949
v -10.239632 -0.418427 -22.501644
v -9.078617 2.072335 -22.584122
v -10.405216 -0.449346 -22.668697
v -10.877838 0.452995 -23.691681
v -9.367649 2.514366 -23.149189
v -10.205727 -0.411793 -22.467606
v -8.159641 0.739767 -26.988525
v -10.149193 -0.250659 -26.553974
v -9.604973 0.706571 -26.879250
v -9.178265 -1.842751 -26.141865
v -8.267159 -1.631901 -26.267868
v -6.131210 -0.986426 -24.074875
v -6.038044 -1.071207 -24.476112
v -6.284651 -1.376486 -24.586452
v -6.714542 -1.535647 -23.953186
v -3.743881 1.597606 -26.247353
v -2.702810 0.198633 -25.706421
v -4.212067 -0.995429 -26.281494
v -4.314808 -1.431645 -25.445339
v -3.589218 0.344394 -23.858738
v -2.727707 -0.262595 -24.627052
v -4.028831 -1.564117 -24.451725
v -4.791397 -1.290482 -23.888718
v -4.806292 -1.284956 -23.885056
v -5.642797 -0.937975 -25.156693
v -4.819725 -0.240030 -23.405838
v -4.803162 -1.278758 -23.876694
v -4.602776 1.660457 -24.283932
v -4.497646 2.042225 -25.383949
v -6.178291 1.106742 -25.238712
v -5.471527 1.082656 -23.890823
v -6.199699 1.068958 -25.149563
v -5.177502 0.099708 -26.770008
v -5.130724 -0.278868 -26.725208
v -6.189579 1.085161 -25.251869
v -5.797680 -0.756396 -25.335743
v -6.214817 1.039436 -25.189751
v -33.959595 1.251508 9.235866
v -33.907444 -0.163040 8.726689
v -34.701714 0.215286 8.088887
v -34.307411 1.917904 9.155120
v -33.593361 -0.292247 8.518419
v -33.170460 1.872601 6.412451
v -34.846783 2.122968 8.701437
v -35.205685 1.383954 8.052417
v -34.962482 1.223038 7.320675
v -33.617355 2.330381 6.809804
v -34.472900 0.152198 7.236255
v -34.512230 0.456993 6.836297
v -33.056652 0.326284 6.875306
v -33.590801 -0.238734 7.284612
v -33.584366 0.793929 6.366215
v -34.186352 0.390045 6.620120
v -33.968819 -0.062218 7.061042
v -32.817341 1.937099 8.872071
v -33.538391 2.537415 8.875629
v -33.882824 2.915987 8.334373
v -33.821674 2.891388 8.178467
v -32.857204 0.526828 6.975566
v -32.553150 0.782554 8.340584
v -32.593819 1.582678 6.914742
v -32.376114 1.724751 7.953264
v -32.318474 1.585703 8.491467
v -29.890236 3.160815 7.290020
v -31.716850 2.647279 5.725968
v -30.653137 1.271124 5.365754
v -28.791451 2.775775 7.704348
v -32.300014 2.459983 5.947145
v -31.235157 -1.125561 9.242711
v -28.134655 1.818720 7.400496
v -28.804317 0.801469 6.198119
v -29.552414 -0.233231 6.364482
v -30.062141 -0.752044 9.241866
v -31.325405 0.021279 5.646733
v -31.104763 -0.683814 6.012717
v -32.886677 -0.055014 7.475675
v -32.739712 0.501231 6.159626
v -31.975304 -1.145687 7.503691
v -31.635731 -0.891168 6.322036
v -32.205223 -0.026677 5.974514
v -30.576370 2.879795 9.422162
v -29.092804 2.501649 9.331750
v -28.500931 1.445515 9.461999
v -28.660217 1.226675 9.519371
v -32.851353 0.139175 7.924735
v -32.365536 2.360062 8.406425
v -32.008488 -0.061531 9.481433
v -31.681389 1.633150 9.770296
v -31.684147 2.531680 9.605510
v 23.762535 1.938116 9.017368
v 23.581776 1.484976 10.979715
v 26.938356 -0.560717 6.040421
v 30.987549 2.911393 9.969761
v 31.145884 1.295840 8.659953
v 26.488129 3.169373 14.070170
v 26.670097 1.389404 14.808703
v 26.754200 1.345580 14.797089
v 27.780262 4.301551 13.073563
v 29.274837 1.771376 13.660854
v 27.862288 4.943416 9.485170
v 27.898542 4.442530 12.751399
v 29.767048 4.257585 10.268023
v 27.539909 -2.116379 13.244864
v 25.256096 -1.424379 7.139367
v 26.402685 -0.655178 6.142462
v 26.900442 -0.637262 6.070874
v 27.431126 -3.130634 8.866277
v 25.498381 -3.002864 8.918671
v 26.574629 -0.495628 6.066730
v 25.487654 3.469042 7.567057
v 26.947739 -0.544842 6.035661
v 28.678793 0.891459 6.505626
v 26.472445 4.172646 7.792545
v 26.498436 -0.485069 6.073259
v 29.919243 1.347928 13.192968
v 31.424318 -0.228583 10.322030
v 31.264349 1.295089 11.318473
v 29.928574 -2.762796 11.084631
v 29.150305 -2.427175 12.324697
v 24.290958 -1.399740 12.686538
v 24.685003 -1.534690 13.210577
v 25.071817 -2.020617 13.022678
v 24.739214 -2.273963 11.850639
vn -0.9195 -0.3587 -0.1608
vn 0.0976 0.8544 -0.5103
vn 0.9184 -0.1629 -0.3606
vn -0.2070 -0.6970 0.6866
vn 0.2445 -0.9354 -0.2554
vn -0.6790 0.6410 0.3579
vn -0.7845 0.4018 -0.4724
vn 0.6086 -0.7935 -0.0058
vn -0.3910 -0.7714 -0.5020
vn 0.1656 -0.2349 -0.9578
vn 0.5772 0.4697 -0.6681
vn 0.4474 -0.0595 0.8923
vn 0.7743 0.6208 0.1226
vn -0.7327 0.6567 -0.1785
vn 0.6903 0.4465 0.5694
vn 0.8094 -0.3363 -0.4814
vn -0.8047 -0.4875 -0.3390
vn -0.0519 -0.0969 -0.9939
vn -0.4415 0.2543 0.8605
vn -0.1607 0.9155 0.3688
vn 0.1366 -0.4977 -0.8566
vn -0.3209 0.5186 -0.7926
vn 0.5520 0.5854 -0.5938
vn 0.9771 0.2047 0.0573
vn -0.1812 -0.9691 0.1672
vn 0.7506 -0.4976 0.4346
vn 0.4532 0.3907 -0.8012
vn -0.6976 0.3459 0.6274
vn -0.4600 -0.7509 0.4738
vn -0.0656 -0.2874 -0.9556
vn -0.0728 0.9485 -0.3083
vn -0.6707 -0.2254 0.7066
vn 0.9660 0.1793 0.1864
vn -0.0761 0.5253 -0.8475
vn 0.3765 -0.2849 -0.8815
vn -0.6416 -0.3131 0.7002
vn -0.1080 0.0954 0.9896
vn 0.6864 -0.6627 0.2994
vn -0.8123 0.5805 0.0555
vn 0.4811 0.7928 0.3741
vn -0.6701 0.1328 -0.7303
vn -0.8412 -0.5344 -0.0828
vn 0.2110 -0.9722 -0.1011
vn 0.7520 -0.4255 -0.5034
vn 0.4759 -0.3243 0.8175
vn 0.4677 -0.3587 0.8078
vn -0.4537 0.8544 0.2532
vn -0.8665 -0.1629 -0.4719
vn 0.6591 -0.6970 -0.2826
vn -0.3528 -0.9354 -0.0232
vn 0.7105 0.6410 0.2903
vn 0.1422 0.4018 0.9046
vn -0.3955 -0.7935 -0.4626
vn -0.1334 -0.7716 0.6219
vn -0.8403 -0.2349 0.4886
vn -0.8828 0.4696 -0.0129
vn 0.3962 -0.0595 -0.9162
vn -0.4036 0.6208 -0.6721
vn 0.1301 -0.6594 -0.7405
vn -0.6704 0.6460 -0.3649
vn -0.6779 -0.2710 0.6834
vn -0.3040 0.6789 0.6683
vn 0.1798 0.2103 0.9610
vn -0.8951 -0.3926 -0.2112
vn -0.4804 -0.7197 -0.5012
vn -0.5049 0.2294 -0.8321
vn -0.4030 -0.9143 -0.0405
vn 0.5880 -0.1919 -0.7858
vn 0.9545 -0.2477 -0.1662
vn 0.6349 0.7618 0.1288
vn 0.5894 0.7746 -0.2295
vn 0.4436 -0.2890 0.8483
vn 0.7159 -0.6976 -0.0288
vn -0.7181 -0.6087 -0.3375
vn 0.8127 -0.5813 0.0392
vn 0.4559 0.5380 -0.7091
vn 0.8344 0.4970 0.2382
vn 0.2535 0.9451 0.2061
vn 0.3047 -0.3619 -0.8810
vn -0.2759 -0.5094 -0.8151
vn 0.3012 -0.9463 -0.1173
vn -0.3479 -0.0236 -0.9372
vn -0.7315 -0.6030 0.3183
vn -0.8714 0.0859 0.4829
vn 0.1054 0.1797 0.9781
vn 0.0576 -0.1785 0.9822
vn -0.2950 0.9550 0.0309
vn -0.9760 0.2172 -0.0172
vn 0.3226 0.3907 0.8621
vn -0.0325 0.3459 -0.9377
vn -0.0675 -0.7509 -0.6570
vn 0.7743 -0.2874 0.5638
vn 0.2830 0.9485 0.1423
vn -0.1103 -0.2251 -0.9681
vn -0.7636 0.1793 0.6203
vn 0.6983 0.5253 0.4863
vn 0.4335 -0.2849 0.8549
vn -0.1241 -0.3131 -0.9416
vn -0.6888 0.0954 -0.7186
vn -0.6705 -0.6627 0.3335
vn 0.4795 0.5805 -0.6581
vn -0.5958 0.7928 0.1282
vn 0.9902 0.1328 -0.0441
vn 0.6039 -0.5344 -0.5913
vn -0.0581 -0.9722 0.2267
vn -0.0975 -0.4255 0.8997
vn -0.9322 -0.3243 -0.1608
usemtl None
s off
f 11//1 12//1 8//1 7//1 6//1 5//1
f 14//2 15//2 17//2 16//2 13//2
f 18//3 19//3 21//3 22//3 20//3
f 7//4 4//4 3//4 2//4 6//4
f 9//5 10//5 4//5 7//5 8//5
f 14//6 13//6 5//6 6//6 2//6 1//6
f 16//7 11//7 5//7 13//7
f 21//8 19//8 3//8 4//8 10//8
f 8//9 12//9 9//9
f 16//10 17//10 22//10 21//10 10//10 9//10 12//10 11//10
f 17//11 15//11 20//11 22//11
f 3//12 19//12 18//12 1//12 2//12
f 14//13 1//13 18//13 20//13 15//13
f 33//14 34//14 30//14 29//14 28//14 27//14
f 36//15 37//15 39//15 38//15 35//15
f 40//16 41//16 43//16 44//16 42//16
f 29//17 26//17 25//17 24//17 28//17
f 31//18 32//18 26//18 29//18 30//18
f 36//19 35//19 27//19 28//19 24//19 23//19
f 38//20 33//20 27//20 35//20
f 43//21 41//21 25//21 26//21 32//21
f 30//22 34//22 31//22
f 38//23 39//23 44//23 43//23 32//23 31//23 34//23 33//23
f 39//24 37//24 42//24 44//24
f 25//25 41//25 40//25 23//25 24//25
f 36//26 23//26 40//26 42//26 37//26
f 51//27 52//27 54//27 53//27 50//27
f 65//28 68//28 67//28 66//28 64//28 69//28
f 63//29 59//29 60//29 61//29 62//29
f 70//30 74//30 73//30 71//30 72//30
f 57//31 55//31 56//31
f 64//32 66//32 47//32
f 75//33 76//33 51//33 50//33 46//33
f 72//34 48//34 57//34 56//34 53//34 54//34 70//34
f 70//35 54//35 52//35 58//35 74//35
f 64//36 47//36 61//36 60//36 69//36
f 65//37 69//37 60//37 59//37 45//37
f 76//38 75//38 78//38 77//38
f 48//39 49//39 67//39 68//39 55//39 57//39
f 56//40 55//40 68//40 65//40 45//40 46//40 50//40 53//40
f 48//41 72//41 71//41 49//41
f 62//42 61//42 47//42 66//42 67//42 49//42 71//42 73//42
f 63//43 62//43 73//43 74//43 58//43 77//43 78//43
f 51//44 76//44 77//44 58//44 52//44
f 46//45 45//45 59//45 63//45 78//45 75//45
f 89//46 90//46 86//46 85//46 84//46 83//46
f 92//47 93//47 95//47 94//47 91//47
f 96//48 97//48 99//48 100//48 98//48
f 85//49 82//49 81//49 80//49 84//49
f 87//50 88//50 82//50 85//50 86//50
f 92//51 91//51 83//51 84//51 80//51 79//51
f 94//52 89//52 83//52 91//52
f 99//53 97//53 81//53 82//53 88//53
f 86//54 90//54 87//54
f 94//55 95//55 100//55 99//55 88//55 87//55 90//55 89//55
f 95//56 93//56 98//56 100//56
f 81//57 97//57 96//57 79//57 80//57
f 92//58 79//58 96//58 98//58 93//58
f 114//59 117//59 116//59 115//59 113//59
f 121//60 110//60 109//60 108//60 107//60 120//60
f 107//61 108//61 103//61 102//61 101//61 104//61
f 120//62 107//62 104//62 119//62
f 119//63 104//63 101//63 118//63
f 103//64 108//64 109//64 112//64 111//64
f 112//65 116//65 117//65 111//65
f 109//66 110//66 106//66 115//66 116//66 112//66
f 111//67 117//67 114//67 105//67 102//67 103//67
f 122//68 113//68 115//68 106//68 124//68
f 126//69 123//69 122//69 124//69 125//69
f 121//70 120//70 119//70 118//70 126//70 125//70
f 121//71 125//71 124//71 106//71 110//71
f 105//72 123//72 126//72 118//72 101//72 102//72
f 105//73 114//73 113//73 122//73 123//73
f 140//74 143//74 142//74 141//74 139//74
f 147//75 136//75 135//75 134//75 133//75 146//75
f 133//76 134//76 129//76 128//76 127//76 130//76
f 146//77 133//77 130//77 145//77
f 145//78 130//78 127//78 144//78
f 129//79 134//79 135//79 138//79 137//79
f 138//80 142//80 143//80 137//80
f 135//81 136//81 132//81 141//81 142//81 138//81
f 137//82 143//82 140//82 131//82 128//82 129//82
f 148//83 139//83 141//83 132//83 150//83
f 152//84 149//84 148//84 150//84 151//84
f 147//85 146//85 145//85 144//85 152//85 151//85
f 147//86 151//86 150//86 132//86 136//86
f 131//87 149//87 152//87 144//87 127//87 128//87
f 131//88 140//88 139//88 148//88 149//88
f 159//89 160//89 162//89 161//89 158//89
f 173//90 176//90 175//90 174//90 172//90 177//90
f 171//91 167//91 168//91 169//91 170//91
f 178//92 182//92 181//92 179//92 180//92
f 165//93 163//93 164//93
f 172//94 174//94 155//94
f 183//95 184//95 159//95 158//95 154//95
f 180//96 156//96 165//96 164//96 161//96 162//96 178//96
f 178//97 162//97 160//97 166//97 182//97
f 172//98 155//98 169//98 168//98 177//98
f 173//99 177//99 168//99 167//99 153//99
f 184//100 183//100 186//100 185//100
f 156//101 157//101 175//101 176//101 163//101 165//101
f 164//102 163//102 176//102 173//102 153//102 154//102 158//102 161//102
f 156//103 180//103 179//103 157//103
f 170//104 169//104 155//104 174//104 175//104 157//104 179//104 181//104
f 171//105 170//105 181//105 182//105 166//105 185//105 186//105
f 159//106 184//106 185//106 166//106 160//106
f 154//107 153//107 167//107 171//107 186//107 183//107
