# Blender v2.79 (sub 0) OBJ File: 'terrain.blend'
# www.blender.org
mtllib riverbend.mtl
o Plane
v -3.564483 0.509434 -40.316566
v -1.257770 0.556176 -36.638741
v 1.230114 0.580130 -32.976429
v 1.971312 0.547081 -29.159977
v 0.843892 0.473028 -25.173483
v -1.447371 0.485027 -21.319458
v -4.580570 0.424529 -16.850327
v -8.145526 0.469618 -11.448224
v -11.239375 0.430518 -5.657192
v -12.568757 0.452597 -0.975198
v -11.559422 0.542418 3.168972
v -7.755029 0.447147 7.486388
v -1.999389 0.547088 10.848982
v 3.214020 0.594714 14.168565
v 7.082177 0.583805 17.856867
v 10.330458 0.540809 21.595284
v 12.514203 0.480412 25.499802
v 13.267295 0.407711 29.184128
v 11.823040 0.334255 33.773376
v 8.148371 0.270405 38.745022
v 14.028904 0.257251 38.951481
v 15.484899 0.320985 33.932243
v 16.789110 0.391980 28.951050
v 15.802106 0.463481 23.777557
v 13.423803 0.524731 19.509331
v 9.939429 0.571082 15.632015
v 5.682079 0.592005 12.215398
v 0.974671 0.561508 8.956295
v -4.856068 0.476325 5.763605
v -8.159418 0.583014 2.803530
v -9.035781 0.504722 -1.290456
v -8.012015 0.480601 -5.862732
v -5.536750 0.503127 -10.285162
v -2.309601 0.449123 -15.251781
v 1.263278 0.501605 -20.335085
v 4.531676 0.492725 -25.185663
v 5.517404 0.583004 -29.236458
v 4.824815 0.644553 -33.140064
v 3.192580 0.668062 -36.917252
v 0.737555 0.619546 -39.998787
v -3.563229 0.970716 -40.184292
v -1.256516 1.017457 -36.506466
v 1.231368 1.041411 -32.844154
v 1.972566 1.008362 -29.027700
v 0.845146 0.934309 -25.041206
v -1.446117 0.946308 -21.187181
v -4.579316 0.885811 -16.718050
v -8.144272 0.930899 -11.315948
v -11.238121 0.891799 -5.524916
v -12.567503 0.913879 -0.842921
v -11.558168 1.003699 3.301248
v -7.753775 0.908428 7.618664
v -1.998135 1.008369 10.981258
v 3.215274 1.055995 14.300841
v 7.083431 1.045086 17.989143
v 10.331712 1.002090 21.727560
v 12.515457 0.941693 25.632078
v 13.268549 0.868992 29.316404
v 11.824294 0.795536 33.905651
v 8.149625 0.731686 38.877296
v 14.030158 0.718532 39.083755
v 15.486153 0.782266 34.064518
v 16.790363 0.853261 29.083326
v 15.803360 0.924762 23.909834
v 13.425057 0.986013 19.641607
v 9.940683 1.032363 15.764292
v 5.683333 1.053286 12.347674
v 0.975924 1.022789 9.088572
v -4.854814 0.937606 5.895881
v -8.158164 1.044296 2.935806
v -9.034527 0.966003 -1.158180
v -8.010761 0.941883 -5.730456
v -5.535496 0.964408 -10.152885
v -2.308347 0.910404 -15.119505
v 1.264532 0.962887 -20.202808
v 4.532930 0.954006 -25.053387
v 5.518658 1.044285 -29.104181
v 4.826069 1.105834 -33.007790
v 3.193833 1.129343 -36.784977
v 0.738809 1.080827 -39.866512
v -5.415898 -0.554473 -40.621269
v -3.082312 -0.521110 -36.900600
v -0.565445 -0.504011 -33.195621
v 0.184387 -0.527601 -29.334711
v -0.956167 -0.580460 -25.301775
v -3.274122 -0.571895 -21.402853
v -6.443821 -0.615077 -16.881659
v -10.050307 -0.582894 -11.416622
v -13.180199 -0.610802 -5.558127
v -14.525067 -0.595042 -0.821589
v -13.503975 -0.530930 3.370858
v -9.655261 -0.598933 7.738570
v -3.832571 -0.527596 11.140338
v 1.441572 -0.493602 14.498592
v 5.354792 -0.501388 18.229860
v 8.640914 -0.532078 22.011827
v 10.850099 -0.575189 25.961832
v 11.611964 -0.627082 29.689079
v 10.150885 -0.679514 34.331791
v 6.433406 -0.725089 39.361355
v -5.414629 0.189171 -40.487453
v -3.081044 0.222534 -36.766785
v -0.564177 0.239632 -33.061806
v 0.185656 0.216042 -29.200893
v -0.954898 0.163184 -25.167959
v -3.272854 0.171749 -21.269035
v -6.442553 0.128567 -16.747841
v -10.049039 0.160750 -11.282804
v -13.178930 0.132841 -5.424310
v -14.523799 0.148601 -0.687772
v -13.502707 0.212714 3.504675
v -9.653993 0.144711 7.872387
v -3.831302 0.216047 11.274155
v 1.442840 0.250042 14.632410
v 5.356061 0.242255 18.363678
v 8.642182 0.211565 22.145645
v 10.851368 0.168455 26.095650
v 11.613233 0.116561 29.822897
v 10.152153 0.064130 34.465607
v 6.434675 0.018555 39.495171
v 16.721708 -0.810570 37.823921
v 18.183401 -0.767313 33.938168
v 19.492720 -0.719127 28.937475
v 18.501850 -0.670598 23.743731
v 16.114239 -0.629027 19.458796
v 12.616224 -0.597568 15.566303
v 8.342209 -0.583367 12.136312
v 3.616372 -0.604066 8.864450
v -2.237192 -0.661881 5.659262
v -5.553473 -0.589469 2.687600
v -6.433266 -0.642607 -1.422413
v -5.405493 -0.658979 -6.012588
v -2.920538 -0.643690 -10.452329
v 0.319244 -0.680344 -15.438391
v 3.906109 -0.644723 -20.541594
v 7.187302 -0.650750 -25.411161
v 8.176888 -0.589476 -29.477812
v 7.481588 -0.547702 -33.396702
v 5.842963 -0.531746 -37.188675
v 3.134497 -0.564674 -40.869900
v 16.722967 -0.103464 37.956715
v 18.184662 -0.060207 34.070961
v 19.493979 -0.012021 29.070271
v 18.503111 0.036508 23.876526
v 16.115498 0.078079 19.591591
v 12.617483 0.109538 15.699098
v 8.343467 0.123739 12.269106
v 3.617631 0.103040 8.997245
v -2.235933 0.045225 5.792056
v -5.552214 0.117637 2.820394
v -6.432007 0.064499 -1.289618
v -5.404234 0.048128 -5.879793
v -2.919279 0.063416 -10.319534
v 0.320503 0.026763 -15.305596
v 3.907368 0.062384 -20.408800
v 7.188561 0.056356 -25.278366
v 8.178147 0.117630 -29.345018
v 7.482847 0.159404 -33.263908
v 5.844222 0.175361 -37.055882
v 3.135756 0.142432 -40.737106
vt 0.379027 0.988485
vt 0.407193 0.989418
vt 0.407193 0.989418
vt 0.379027 0.988485
vt 0.407193 0.989418
vt 0.379027 0.988485
vt 0.379027 0.988485
vt 0.407193 0.989418
vt 0.435607 0.990565
vt 0.435607 0.990565
vt 0.805808 0.006126
vt 0.778643 0.005279
vt 0.778643 0.005279
vt 0.805808 0.006126
vt 0.435607 0.990565
vt 0.435607 0.990565
vt 0.778643 0.005279
vt 0.805808 0.006126
vt 0.805808 0.006126
vt 0.778643 0.005279
vt 0.751741 0.004852
vt 0.751741 0.004852
vt 0.462818 0.992192
vt 0.462818 0.992192
vt 0.751741 0.004852
vt 0.751741 0.004852
vt 0.462818 0.992192
vt 0.462818 0.992192
vt 0.490832 0.994002
vt 0.490832 0.994002
vt 0.724876 0.004797
vt 0.724876 0.004797
vt 0.490832 0.994002
vt 0.490832 0.994002
vt 0.724876 0.004797
vt 0.724876 0.004797
vt 0.523420 0.995099
vt 0.523420 0.995099
vt 0.698609 0.005401
vt 0.698609 0.005401
vt 0.523420 0.995099
vt 0.523420 0.995099
vt 0.698609 0.005401
vt 0.698609 0.005401
vt 0.669134 0.006935
vt 0.669134 0.006935
vt 0.669134 0.006935
vt 0.669134 0.006935
vt 0.552219 0.995245
vt 0.552219 0.995245
vt 0.638382 0.008600
vt 0.638382 0.008600
vt 0.552219 0.995245
vt 0.552219 0.995245
vt 0.582404 0.994565
vt 0.582404 0.994565
vt 0.638382 0.008600
vt 0.638382 0.008600
vt 0.582404 0.994565
vt 0.582404 0.994565
vt 0.608085 0.010125
vt 0.608085 0.010125
vt 0.618358 0.993225
vt 0.618358 0.993225
vt 0.618358 0.993225
vt 0.618358 0.993225
vt 0.651260 0.991742
vt 0.651260 0.991742
vt 0.651260 0.991742
vt 0.651260 0.991742
vt 0.608085 0.010125
vt 0.608085 0.010125
vt 0.678306 0.990452
vt 0.678306 0.990452
vt 0.580734 0.011328
vt 0.580734 0.011328
vt 0.678306 0.990452
vt 0.678306 0.990452
vt 0.702017 0.989481
vt 0.702017 0.989481
vt 0.580734 0.011328
vt 0.580734 0.011328
vt 0.550997 0.011974
vt 0.550997 0.011974
vt 0.702017 0.989481
vt 0.702017 0.989481
vt 0.807846 0.990261
vt 0.780976 0.989647
vt 0.780976 0.989647
vt 0.807846 0.990261
vt 0.754039 0.988971
vt 0.754039 0.988971
vt 0.727716 0.988902
vt 0.727716 0.988902
vt 0.350750 0.987924
vt 0.350750 0.987924
vt 0.325299 0.987844
vt 0.325299 0.987844
vt 0.295847 0.988560
vt 0.295847 0.988560
vt 0.265933 0.990058
vt 0.265933 0.990058
vt 0.350750 0.987924
vt 0.350750 0.987924
vt 0.325299 0.987844
vt 0.325299 0.987844
vt 0.295847 0.988560
vt 0.295847 0.988560
vt 0.265933 0.990058
vt 0.265933 0.990058
vt 0.807846 0.990261
vt 0.780976 0.989647
vt 0.780976 0.989647
vt 0.807846 0.990261
vt 0.754039 0.988971
vt 0.754039 0.988971
vt 0.727716 0.988902
vt 0.727716 0.988902
vt 0.291325 0.004377
vt 0.323540 0.003599
vt 0.323540 0.003599
vt 0.291325 0.004377
vt 0.359207 0.003700
vt 0.359207 0.003700
vt 0.390110 0.004391
vt 0.390110 0.004391
vt 0.419431 0.005531
vt 0.419431 0.005531
vt 0.446389 0.006997
vt 0.446389 0.006997
vt 0.472715 0.008647
vt 0.472715 0.008647
vt 0.499659 0.010736
vt 0.499659 0.010736
vt 0.522663 0.011857
vt 0.522663 0.011857
vt 0.550997 0.011974
vt 0.258998 0.005216
vt 0.258998 0.005216
vt 0.258998 0.005216
vt 0.291325 0.004377
vt 0.291325 0.004377
vt 0.258998 0.005216
vt 0.323540 0.003599
vt 0.323540 0.003599
vt 0.359207 0.003700
vt 0.359207 0.003700
vt 0.390110 0.004391
vt 0.390110 0.004391
vt 0.419431 0.005531
vt 0.419431 0.005531
vt 0.446389 0.006997
vt 0.446389 0.006997
vt 0.472715 0.008647
vt 0.472715 0.008647
vt 0.499659 0.010736
vt 0.499659 0.010736
vt 0.522663 0.011857
vt 0.522663 0.011857
vt 0.550997 0.011974
vt 0.780976 0.989647
vt 0.807846 0.990261
vt 0.754039 0.988971
vt 0.780976 0.989647
vt 0.727716 0.988902
vt 0.754039 0.988971
vt 0.702017 0.989481
vt 0.727716 0.988902
vt 0.678306 0.990452
vt 0.702017 0.989481
vt 0.651260 0.991742
vt 0.678306 0.990452
vt 0.618358 0.993225
vt 0.651260 0.991742
vt 0.582404 0.994565
vt 0.618358 0.993225
vt 0.552219 0.995245
vt 0.582404 0.994565
vt 0.523420 0.995099
vt 0.552219 0.995245
vt 0.490832 0.994002
vt 0.523420 0.995099
vt 0.462818 0.992192
vt 0.490832 0.994002
vt 0.435607 0.990565
vt 0.462818 0.992192
vt 0.407193 0.989418
vt 0.435607 0.990565
vt 0.379027 0.988485
vt 0.407193 0.989418
vt 0.350750 0.987924
vt 0.379027 0.988485
vt 0.325299 0.987844
vt 0.350750 0.987924
vt 0.295847 0.988560
vt 0.325299 0.987844
vt 0.265933 0.990058
vt 0.295847 0.988560
vt 0.291325 0.004377
vt 0.258998 0.005216
vt 0.323540 0.003599
vt 0.291325 0.004377
vt 0.359207 0.003700
vt 0.323540 0.003599
vt 0.390110 0.004391
vt 0.359207 0.003700
vt 0.419431 0.005531
vt 0.390110 0.004391
vt 0.446389 0.006997
vt 0.419431 0.005531
vt 0.472715 0.008647
vt 0.446389 0.006997
vt 0.499659 0.010736
vt 0.472715 0.008647
vt 0.522663 0.011857
vt 0.499659 0.010736
vt 0.550997 0.011974
vt 0.522663 0.011857
vt 0.580734 0.011328
vt 0.550997 0.011974
vt 0.608085 0.010125
vt 0.580734 0.011328
vt 0.638382 0.008600
vt 0.608085 0.010125
vt 0.669134 0.006935
vt 0.638382 0.008600
vt 0.698609 0.005401
vt 0.669134 0.006935
vt 0.724876 0.004797
vt 0.698609 0.005401
vt 0.751741 0.004852
vt 0.724876 0.004797
vt 0.778643 0.005279
vt 0.751741 0.004852
vt 0.805808 0.006126
vt 0.778643 0.005279
vn 0.4181 0.8653 -0.2764
vn 0.3284 0.8931 -0.3074
vn -0.6368 0.4670 0.6135
vn -0.7046 0.5009 0.5026
vn 0.6734 -0.3623 -0.6443
vn 0.7506 -0.3873 -0.5354
vn -0.3155 -0.9261 0.2066
vn -0.2779 -0.9264 0.2539
vn 0.2676 0.8965 -0.3530
vn -0.5469 0.4422 0.7109
vn -0.6497 0.5548 0.5196
vn -0.5041 0.8219 0.2652
vn 0.7074 0.5871 -0.3935
vn 0.6279 0.6171 -0.4741
vn 0.5878 -0.3255 -0.7406
vn -0.2060 -0.9495 0.2366
vn -0.6706 -0.6083 0.4245
vn -0.6333 -0.5859 0.5055
vn 0.3037 -0.9314 -0.2005
vn 0.5209 -0.7905 -0.3220
vn -0.5419 0.8275 0.1468
vn 0.7859 0.5780 -0.2198
vn 0.1882 0.9252 -0.3294
vn -0.4763 0.4143 0.7756
vn -0.7679 -0.5938 0.2403
vn 0.5734 -0.7950 -0.1978
vn 0.5007 -0.2985 -0.8125
vn -0.1686 -0.9432 0.2862
vn 0.2206 0.9453 -0.2401
vn -0.5788 0.4301 0.6928
vn -0.4873 0.8729 -0.0234
vn 0.8399 0.5407 0.0468
vn 0.5820 -0.3559 -0.7312
vn -0.2805 -0.8877 0.3651
vn -0.8152 -0.5788 -0.0197
vn 0.6137 -0.7895 -0.0101
vn 0.3360 0.9252 -0.1763
vn -0.7740 0.4855 0.4065
vn -0.4015 0.8994 -0.1728
vn 0.7879 0.5023 0.3562
vn 0.7826 -0.4712 -0.4069
vn -0.4984 -0.8280 0.2567
vn -0.7874 -0.5062 -0.3517
vn 0.5161 -0.8284 0.2178
vn -0.3909 0.8817 -0.2640
vn 0.7125 0.5018 0.4905
vn -0.7407 -0.4341 -0.5127
vn 0.3836 -0.8850 0.2636
vn 0.4542 0.8897 -0.0450
vn -0.8530 0.5219 0.0005
vn -0.4058 0.8708 -0.2775
vn 0.7140 0.5045 0.4854
vn 0.8249 -0.5630 0.0509
vn -0.6037 -0.7963 -0.0390
vn 0.5204 0.8347 0.1801
vn -0.7720 0.5611 -0.2985
vn -0.7452 -0.4398 -0.5011
vn 0.3766 -0.8919 0.2502
vn 0.7641 -0.5564 0.3264
vn -0.5167 -0.8234 -0.2347
vn -0.4315 0.8638 -0.2601
vn 0.7316 0.5206 0.4401
vn 0.5023 0.8182 0.2795
vn -0.7096 0.5698 -0.4146
vn 0.7157 -0.5448 0.4369
vn -0.4571 -0.8410 -0.2892
vn 0.4906 0.8051 0.3333
vn -0.6811 0.5683 -0.4615
vn 0.6938 -0.5436 0.4723
vn -0.4276 -0.8544 -0.2951
vn -0.7668 -0.4442 -0.4633
vn 0.3927 -0.8881 0.2387
vn 0.5039 0.7940 0.3400
vn -0.6841 0.5782 -0.4446
vn -0.5454 0.8147 -0.1969
vn 0.7710 0.5641 0.2955
vn 0.7135 -0.5348 0.4526
vn -0.4230 -0.8662 -0.2659
vn 0.5712 0.7693 0.2862
vn -0.7372 0.5899 -0.3295
vn -0.8236 -0.4673 -0.3214
vn 0.4089 -0.8998 0.1522
vn -0.6489 0.7605 0.0234
vn 0.7847 0.6196 -0.0160
vn 0.7926 -0.5211 0.3164
vn -0.4278 -0.8903 -0.1561
vn -0.5739 -0.7317 0.3677
vn -0.3369 -0.9127 0.2311
vn -0.7457 0.4610 0.4811
vn -0.8143 0.2816 0.5075
vn -0.3099 -0.9448 0.1061
vn -0.7839 0.5222 0.3357
vn -0.3856 -0.9226 -0.0082
vn -0.8046 0.5925 -0.0378
vn -0.3661 -0.9211 0.1325
vn -0.7855 0.5448 0.2934
vn -0.3597 -0.9326 0.0283
vn -0.8079 0.5858 -0.0642
vn -0.3604 -0.9283 -0.0917
vn -0.7362 0.5401 -0.4079
vn -0.7687 -0.2868 -0.5716
vn -0.7507 0.3645 -0.5510
vn 0.8428 -0.4225 -0.3334
vn 0.5349 0.8287 -0.1643
vn 0.8890 -0.4578 0.0014
vn 0.6306 0.7692 0.1025
vn 0.7983 -0.4820 0.3612
vn 0.5242 0.7774 0.3475
vn 0.6963 -0.5061 0.5090
vn -0.0385 0.9991 -0.0178
vn 0.7316 -0.5090 -0.4535
vn 0.7782 -0.3706 -0.5069
vn 0.3533 0.9052 -0.2362
vn 0.2558 0.9515 -0.1710
vn 0.8463 -0.3940 -0.3585
vn 0.5193 0.8307 -0.2005
vn 0.8854 -0.4647 0.0087
vn 0.6278 0.7750 0.0722
vn 0.5184 -0.8402 0.1592
vn 0.6266 -0.7792 -0.0095
vn 0.8353 0.5475 0.0497
vn 0.7952 0.5488 0.2577
vn 0.5777 -0.7778 -0.2473
vn 0.7729 0.5801 -0.2573
vn 0.4769 -0.7910 -0.3831
vn 0.6682 0.5896 -0.4537
vn 0.3780 -0.8108 -0.4468
vn 0.5700 0.5819 -0.5801
vn 0.3117 -0.8388 -0.4464
vn 0.4974 0.5685 -0.6552
vn 0.2608 -0.8458 -0.4653
vn 0.4446 0.5505 -0.7066
vn 0.3138 -0.8935 -0.3213
vn 0.4568 0.5605 -0.6907
vn 0.3949 -0.9089 -0.1340
vn 0.6356 0.6512 -0.4147
vn 0.4501 -0.8925 0.0301
vn 0.3151 -0.9406 0.1259
vn 0.6799 0.6885 0.2524
vn -0.9119 -0.3054 -0.2741
vn -0.8238 -0.5146 -0.2378
vn -0.5279 0.8391 -0.1310
vn -0.6907 0.6993 -0.1841
vn -0.8036 -0.5950 -0.0141
vn -0.4937 0.8690 -0.0341
vn -0.7384 -0.6109 0.2855
vn -0.5300 0.8318 0.1648
vn -0.6426 -0.5996 0.4769
vn -0.4852 0.8165 0.3128
vn -0.5512 -0.5763 0.6033
vn -0.4162 0.8178 0.3974
vn -0.4906 -0.5537 0.6728
vn -0.3617 0.8153 0.4522
vn -0.4299 -0.5315 0.7298
vn -0.3222 0.8340 0.4479
vn -0.5012 -0.5608 0.6590
vn -0.3345 0.7509 0.5694
vn -0.7505 -0.5388 0.3825
vn -0.5766 0.7056 0.4118
vn -0.8603 -0.5093 -0.0218
usemtl None
s 1
f 56/1/1 55/2/2 115/3/3 116/4/4
f 15/5/5 16/6/6 96/7/7 95/8/8
f 55/2/2 54/9/9 114/10/10 115/3/3
f 80/11/11 79/12/12 159/13/13 160/14/14
f 14/15/15 15/5/5 95/8/8 94/16/16
f 39/17/17 40/18/18 140/19/19 139/20/20
f 79/12/12 78/21/21 158/22/22 159/13/13
f 54/9/9 53/23/23 113/24/24 114/10/10
f 38/25/25 39/17/17 139/20/20 138/26/26
f 13/27/27 14/15/15 94/16/16 93/28/28
f 53/23/23 52/29/29 112/30/30 113/24/24
f 78/21/21 77/31/31 157/32/32 158/22/22
f 12/33/33 13/27/27 93/28/28 92/34/34
f 37/35/35 38/25/25 138/26/26 137/36/36
f 52/29/29 51/37/37 111/38/38 112/30/30
f 77/31/31 76/39/39 156/40/40 157/32/32
f 11/41/41 12/33/33 92/34/34 91/42/42
f 36/43/43 37/35/35 137/36/36 136/44/44
f 76/39/39 75/45/45 155/46/46 156/40/40
f 35/47/47 36/43/43 136/44/44 135/48/48
f 51/37/37 50/49/49 110/50/50 111/38/38
f 75/45/45 74/51/51 154/52/52 155/46/46
f 10/53/53 11/41/41 91/42/42 90/54/54
f 50/49/49 49/55/55 109/56/56 110/50/50
f 34/57/57 35/47/47 135/48/48 134/58/58
f 9/59/59 10/53/53 90/54/54 89/60/60
f 74/51/51 73/61/61 153/62/62 154/52/52
f 49/55/55 48/63/63 108/64/64 109/56/56
f 8/65/65 9/59/59 89/60/60 88/66/66
f 48/63/63 47/67/67 107/68/68 108/64/64
f 7/69/69 8/65/65 88/66/66 87/70/70
f 33/71/71 34/57/57 134/58/58 133/72/72
f 47/67/67 46/73/73 106/74/74 107/68/68
f 73/61/61 72/75/75 152/76/76 153/62/62
f 6/77/77 7/69/69 87/70/70 86/78/78
f 46/73/73 45/79/79 105/80/80 106/74/74
f 32/81/81 33/71/71 133/72/72 132/82/82
f 72/75/75 71/83/83 151/84/84 152/76/76
f 5/85/85 6/77/77 86/78/78 85/86/86
f 81/87/87 82/88/88 102/89/89 101/90/90
f 82/88/88 83/91/91 103/92/92 102/89/89
f 83/91/91 84/93/93 104/94/94 103/92/92
f 84/93/93 85/86/86 105/80/80 104/94/94
f 85/86/86 86/78/78 106/74/74 105/80/80
f 86/78/78 87/70/70 107/68/68 106/74/74
f 87/70/70 88/66/66 108/64/64 107/68/68
f 88/66/66 89/60/60 109/56/56 108/64/64
f 89/60/60 90/54/54 110/50/50 109/56/56
f 90/54/54 91/42/42 111/38/38 110/50/50
f 91/42/42 92/34/34 112/30/30 111/38/38
f 92/34/34 93/28/28 113/24/24 112/30/30
f 93/28/28 94/16/16 114/10/10 113/24/24
f 94/16/16 95/8/8 115/3/3 114/10/10
f 95/8/8 96/7/7 116/4/4 115/3/3
f 96/7/7 97/95/95 117/96/96 116/4/4
f 97/95/95 98/97/97 118/98/98 117/96/96
f 98/97/97 99/99/99 119/100/100 118/98/98
f 99/99/99 100/101/101 120/102/102 119/100/100
f 16/6/6 17/103/103 97/95/95 96/7/7
f 57/104/104 56/1/1 116/4/4 117/96/96
f 17/103/103 18/105/105 98/97/97 97/95/95
f 58/106/106 57/104/104 117/96/96 118/98/98
f 18/105/105 19/107/107 99/99/99 98/97/97
f 59/108/108 58/106/106 118/98/98 119/100/100
f 19/107/107 20/109/109 100/101/101 99/99/99
f 60/110/110 59/108/108 119/100/100 120/102/102
f 1/111/111 2/112/112 82/88/88 81/87/87
f 42/113/113 41/114/114 101/90/90 102/89/89
f 2/112/112 3/115/115 83/91/91 82/88/88
f 43/116/116 42/113/113 102/89/89 103/92/92
f 3/115/115 4/117/117 84/93/93 83/91/91
f 44/118/118 43/116/116 103/92/92 104/94/94
f 4/117/117 5/85/85 85/86/86 84/93/93
f 45/79/79 44/118/118 104/94/94 105/80/80
f 122/119/119 123/120/120 143/121/121 142/122/122
f 123/120/120 124/123/123 144/124/124 143/121/121
f 124/123/123 125/125/125 145/126/126 144/124/124
f 125/125/125 126/127/127 146/128/128 145/126/126
f 126/127/127 127/129/129 147/130/130 146/128/128
f 127/129/129 128/131/131 148/132/132 147/130/130
f 128/131/131 129/133/133 149/134/134 148/132/132
f 129/133/133 130/135/135 150/136/136 149/134/134
f 130/135/135 131/137/137 151/84/84 150/136/136
f 131/137/137 132/82/82 152/76/76 151/84/84
f 132/82/82 133/72/72 153/62/62 152/76/76
f 133/72/72 134/58/58 154/52/52 153/62/62
f 134/58/58 135/48/48 155/46/46 154/52/52
f 135/48/48 136/44/44 156/40/40 155/46/46
f 136/44/44 137/36/36 157/32/32 156/40/40
f 137/36/36 138/26/26 158/22/22 157/32/32
f 138/26/26 139/20/20 159/13/13 158/22/22
f 139/20/20 140/19/19 160/14/14 159/13/13
f 121/138/138 122/119/119 142/122/122 141/139/139
f 21/140/140 22/141/141 122/119/119 121/138/138
f 62/142/142 61/143/143 141/139/139 142/122/122
f 22/141/141 23/144/144 123/120/120 122/119/119
f 63/145/145 62/142/142 142/122/122 143/121/121
f 23/144/144 24/146/146 124/123/123 123/120/120
f 64/147/147 63/145/145 143/121/121 144/124/124
f 24/146/146 25/148/148 125/125/125 124/123/123
f 65/149/149 64/147/147 144/124/124 145/126/126
f 25/148/148 26/150/150 126/127/127 125/125/125
f 66/151/151 65/149/149 145/126/126 146/128/128
f 26/150/150 27/152/152 127/129/129 126/127/127
f 67/153/153 66/151/151 146/128/128 147/130/130
f 27/152/152 28/154/154 128/131/131 127/129/129
f 68/155/155 67/153/153 147/130/130 148/132/132
f 28/154/154 29/156/156 129/133/133 128/131/131
f 69/157/157 68/155/155 148/132/132 149/134/134
f 29/156/156 30/158/158 130/135/135 129/133/133
f 70/159/159 69/157/157 149/134/134 150/136/136
f 30/158/158 31/160/160 131/137/137 130/135/135
f 71/83/83 70/159/159 150/136/136 151/84/84
f 31/160/160 32/81/81 132/82/82 131/137/137
f 1/111/111 41/161/114 42/113/113 2/162/112
f 2/112/112 42/163/113 43/116/116 3/164/115
f 3/115/115 43/165/116 44/118/118 4/166/117
f 4/117/117 44/167/118 45/79/79 5/168/85
f 5/85/85 45/169/79 46/73/73 6/170/77
f 6/77/77 46/171/73 47/67/67 7/172/69
f 7/69/69 47/173/67 48/63/63 8/174/65
f 8/65/65 48/175/63 49/55/55 9/176/59
f 9/59/59 49/177/55 50/49/49 10/178/53
f 10/53/53 50/179/49 51/37/37 11/180/41
f 11/41/41 51/181/37 52/29/29 12/182/33
f 12/33/33 52/183/29 53/23/23 13/184/27
f 13/27/27 53/185/23 54/9/9 14/186/15
f 14/15/15 54/187/9 55/2/2 15/188/5
f 15/5/5 55/189/2 56/1/1 16/190/6
f 16/6/6 56/191/1 57/104/104 17/192/103
f 17/103/103 57/193/104 58/106/106 18/194/105
f 18/105/105 58/195/106 59/108/108 19/196/107
f 19/107/107 59/197/108 60/110/110 20/198/109
f 21/140/140 61/199/143 62/142/142 22/200/141
f 22/141/141 62/201/142 63/145/145 23/202/144
f 23/144/144 63/203/145 64/147/147 24/204/146
f 24/146/146 64/205/147 65/149/149 25/206/148
f 25/148/148 65/207/149 66/151/151 26/208/150
f 26/150/150 66/209/151 67/153/153 27/210/152
f 27/152/152 67/211/153 68/155/155 28/212/154
f 28/154/154 68/213/155 69/157/157 29/214/156
f 29/156/156 69/215/157 70/159/159 30/216/158
f 30/158/158 70/217/159 71/83/83 31/218/160
f 31/160/160 71/219/83 72/75/75 32/220/81
f 32/81/81 72/221/75 73/61/61 33/222/71
f 33/71/71 73/223/61 74/51/51 34/224/57
f 34/57/57 74/225/51 75/45/45 35/226/47
f 35/47/47 75/227/45 76/39/39 36/228/43
f 36/43/43 76/229/39 77/31/31 37/230/35
f 37/35/35 77/231/31 78/21/21 38/232/25
f 38/25/25 78/233/21 79/12/12 39/234/17
f 39/17/17 79/235/12 80/11/11 40/236/18
