# Blender v2.79 (sub 0) OBJ File: 'terrain2.blend'
# www.blender.org
mtllib trash.mtl
o Icosphere.004_Icosphere.006
v 0.269442 10.068002 29.752079
v 0.203590 10.178816 30.944845
v 0.264932 10.007550 30.993128
v -0.414475 10.178816 30.744028
v -0.221202 10.012229 30.403894
v 0.433596 10.143889 30.260593
v 0.017633 10.495675 30.697531
v -0.405375 10.602646 31.099863
v -0.289017 10.483271 30.263288
v 0.177146 10.656791 30.074272
v 1.046344 10.483271 30.482182
v -0.189422 10.812313 30.452824
v -0.207373 10.848251 28.509319
v -0.273225 10.959065 29.702087
v -0.211882 10.787800 29.750368
v -0.891290 10.959065 29.501268
v -0.698017 10.792479 29.161135
v -0.043218 10.924139 29.017834
v -0.459182 11.275926 29.454771
v -0.882189 11.382895 29.857103
v -0.765832 11.263520 29.020529
v -0.299669 11.437040 28.831512
v 0.569530 11.263520 29.239422
v -0.666236 11.592564 29.210064
v 1.032344 10.663916 29.272223
v 0.966492 10.774729 30.464989
v 1.027835 10.603464 30.513271
v 0.348427 10.774729 30.264172
v 0.541700 10.608143 29.924038
v 1.196499 10.739803 29.780737
v 0.780535 11.091589 30.217674
v 0.357528 11.198560 30.620007
v 0.473885 11.079184 29.783432
v 0.940048 11.252705 29.594416
v 1.809247 11.079184 30.002325
v 0.573481 11.408227 29.972967
vn 0.9394 0.3421 0.0201
vn 0.1467 -0.9842 0.0995
vn -0.2275 -0.9726 -0.0482
vn 0.7835 -0.2513 0.5683
vn -0.2127 0.9741 -0.0767
vn 0.4232 -0.8864 0.1875
vn -0.8899 -0.2036 0.4082
vn -0.4052 -0.5827 0.7044
vn -0.8897 -0.2434 -0.3863
vn -0.1208 -0.3918 -0.9121
vn 0.1608 0.6642 0.7300
vn 0.6210 0.6115 0.4903
vn -0.9756 0.1532 -0.1576
vn -0.2558 -0.3101 -0.9156
vn 0.3999 -0.1296 -0.9073
vn 0.1603 0.6671 0.7275
vn 0.5764 0.7012 0.4196
vn -0.9078 0.3786 -0.1803
vn -0.4811 0.5424 -0.6887
vn 0.2578 0.9556 -0.1429
vn -0.8899 -0.2037 0.4082
vn -0.4052 -0.5827 0.7045
vn -0.4812 0.5424 -0.6887
usemtl None
s off
f 1//1 2//1 3//1
f 2//2 1//2 6//2
f 1//3 3//3 4//3
f 1//4 4//4 5//4
f 1//5 5//5 6//5
f 2//6 6//6 11//6
f 3//7 2//7 7//7
f 4//8 3//8 8//8
f 5//9 4//9 9//9
f 6//10 5//10 10//10
f 2//11 11//11 7//11
f 3//12 7//12 8//12
f 4//13 8//13 9//13
f 5//14 9//14 10//14
f 6//15 10//15 11//15
f 7//16 11//16 12//16
f 8//17 7//17 12//17
f 9//18 8//18 12//18
f 10//19 9//19 12//19
f 11//20 10//20 12//20
f 13//1 14//1 15//1
f 14//2 13//2 18//2
f 13//3 15//3 16//3
f 13//4 16//4 17//4
f 13//5 17//5 18//5
f 14//6 18//6 23//6
f 15//21 14//21 19//21
f 16//22 15//22 20//22
f 17//9 16//9 21//9
f 18//10 17//10 22//10
f 14//11 23//11 19//11
f 15//12 19//12 20//12
f 16//13 20//13 21//13
f 17//14 21//14 22//14
f 18//15 22//15 23//15
f 19//16 23//16 24//16
f 20//17 19//17 24//17
f 21//18 20//18 24//18
f 22//19 21//19 24//19
f 23//20 22//20 24//20
f 25//1 26//1 27//1
f 26//2 25//2 30//2
f 25//3 27//3 28//3
f 25//4 28//4 29//4
f 25//5 29//5 30//5
f 26//6 30//6 35//6
f 27//21 26//21 31//21
f 28//22 27//22 32//22
f 29//9 28//9 33//9
f 30//10 29//10 34//10
f 26//11 35//11 31//11
f 27//12 31//12 32//12
f 28//13 32//13 33//13
f 29//14 33//14 34//14
f 30//15 34//15 35//15
f 31//16 35//16 36//16
f 32//17 31//17 36//17
f 33//18 32//18 36//18
f 34//23 33//23 36//23
f 35//20 34//20 36//20
o Icosphere.002_Icosphere.005
v -28.441784 6.578301 -12.716938
v -28.507635 6.689115 -11.524171
v -28.446293 6.517850 -11.475889
v -29.125700 6.689115 -11.724989
v -28.932426 6.522529 -12.065124
v -28.277628 6.654189 -12.208424
v -28.693592 7.005975 -11.771487
v -29.116600 7.112946 -11.369154
v -29.000242 6.993570 -12.205729
v -28.534079 7.167090 -12.394745
v -27.664881 6.993570 -11.986835
v -28.900646 7.322613 -12.016193
v -28.918598 7.358552 -13.959698
v -28.984449 7.469365 -12.766930
v -28.923107 7.298100 -12.718649
v -29.602514 7.469365 -12.967749
v -29.409241 7.302778 -13.307882
v -28.754442 7.434439 -13.451182
v -29.170406 7.786225 -13.014246
v -29.593414 7.893195 -12.611913
v -29.477057 7.773820 -13.448488
v -29.010893 7.947340 -13.637505
v -28.141695 7.773820 -13.229594
v -29.377460 8.102863 -13.258953
v -27.678881 7.174215 -13.196795
v -27.744732 7.285028 -12.004027
v -27.683390 7.113763 -11.955746
v -28.362797 7.285028 -12.204845
v -28.169525 7.118442 -12.544980
v -27.514725 7.250103 -12.688280
v -27.930689 7.601889 -12.251344
v -28.353697 7.708859 -11.849010
v -28.237339 7.589484 -12.685585
v -27.771175 7.763004 -12.874601
v -26.901978 7.589484 -12.466692
v -28.137743 7.918527 -12.496050
vn 0.9394 0.3421 0.0201
vn 0.1467 -0.9842 0.0995
vn -0.2275 -0.9726 -0.0482
vn 0.7835 -0.2513 0.5683
vn -0.2127 0.9741 -0.0767
vn 0.4232 -0.8864 0.1875
vn -0.8899 -0.2036 0.4082
vn -0.4052 -0.5827 0.7044
vn -0.8897 -0.2434 -0.3863
vn -0.1208 -0.3918 -0.9121
vn 0.1608 0.6642 0.7300
vn 0.6210 0.6115 0.4903
vn -0.9756 0.1532 -0.1576
vn -0.2558 -0.3101 -0.9156
vn 0.3999 -0.1296 -0.9073
vn 0.1603 0.6671 0.7275
vn 0.5764 0.7012 0.4196
vn -0.9078 0.3786 -0.1803
vn -0.4811 0.5424 -0.6887
vn 0.2578 0.9556 -0.1429
vn -0.4052 -0.5827 0.7045
vn -0.8899 -0.2037 0.4082
usemtl None
s off
f 37//24 38//24 39//24
f 38//25 37//25 42//25
f 37//26 39//26 40//26
f 37//27 40//27 41//27
f 37//28 41//28 42//28
f 38//29 42//29 47//29
f 39//30 38//30 43//30
f 40//31 39//31 44//31
f 41//32 40//32 45//32
f 42//33 41//33 46//33
f 38//34 47//34 43//34
f 39//35 43//35 44//35
f 40//36 44//36 45//36
f 41//37 45//37 46//37
f 42//38 46//38 47//38
f 43//39 47//39 48//39
f 44//40 43//40 48//40
f 45//41 44//41 48//41
f 46//42 45//42 48//42
f 47//43 46//43 48//43
f 49//24 50//24 51//24
f 50//25 49//25 54//25
f 49//26 51//26 52//26
f 49//27 52//27 53//27
f 49//28 53//28 54//28
f 50//29 54//29 59//29
f 51//30 50//30 55//30
f 52//44 51//44 56//44
f 53//32 52//32 57//32
f 54//33 53//33 58//33
f 50//34 59//34 55//34
f 51//35 55//35 56//35
f 52//36 56//36 57//36
f 53//37 57//37 58//37
f 54//38 58//38 59//38
f 55//39 59//39 60//39
f 56//40 55//40 60//40
f 57//41 56//41 60//41
f 58//42 57//42 60//42
f 59//43 58//43 60//43
f 61//24 62//24 63//24
f 62//25 61//25 66//25
f 61//26 63//26 64//26
f 61//27 64//27 65//27
f 61//28 65//28 66//28
f 62//29 66//29 71//29
f 63//45 62//45 67//45
f 64//44 63//44 68//44
f 65//32 64//32 69//32
f 66//33 65//33 70//33
f 62//34 71//34 67//34
f 63//35 67//35 68//35
f 64//36 68//36 69//36
f 65//37 69//37 70//37
f 66//38 70//38 71//38
f 67//39 71//39 72//39
f 68//40 67//40 72//40
f 69//41 68//41 72//41
f 70//42 69//42 72//42
f 71//43 70//43 72//43
o Icosphere.001_Icosphere.004
v 0.269442 6.567314 29.752079
v 0.203590 6.678127 30.944845
v 0.264932 6.506862 30.993128
v -0.414475 6.678127 30.744028
v -0.221202 6.511541 30.403894
v 0.433596 6.643201 30.260593
v 0.017633 6.994987 30.697531
v -0.405375 7.101958 31.099863
v -0.289017 6.982583 30.263288
v 0.177146 7.156103 30.074272
v 1.046344 6.982583 30.482182
v -0.189422 7.311625 30.452824
v -0.207373 7.347564 28.509319
v -0.273225 7.458377 29.702087
v -0.211882 7.287112 29.750368
v -0.891290 7.458377 29.501268
v -0.698017 7.291790 29.161135
v -0.043218 7.423451 29.017834
v -0.459182 7.775237 29.454771
v -0.882189 7.882207 29.857103
v -0.765832 7.762832 29.020529
v -0.299669 7.936353 28.831512
v 0.569530 7.762832 29.239422
v -0.666236 8.091875 29.210064
v 1.032344 7.163228 29.272223
v 0.966492 7.274041 30.464989
v 1.027835 7.102776 30.513271
v 0.348427 7.274041 30.264172
v 0.541700 7.107454 29.924038
v 1.196499 7.239115 29.780737
v 0.780535 7.590901 30.217674
v 0.357528 7.697871 30.620007
v 0.473885 7.578496 29.783432
v 0.940048 7.752017 29.594416
v 1.809247 7.578496 30.002325
v 0.573481 7.907539 29.972967
vn 0.9394 0.3421 0.0201
vn 0.1467 -0.9842 0.0995
vn -0.2275 -0.9726 -0.0482
vn 0.7835 -0.2513 0.5683
vn -0.2127 0.9741 -0.0767
vn 0.4232 -0.8864 0.1875
vn -0.8899 -0.2037 0.4082
vn -0.4052 -0.5827 0.7045
vn -0.8897 -0.2434 -0.3863
vn -0.1208 -0.3918 -0.9121
vn 0.1608 0.6642 0.7300
vn 0.6210 0.6115 0.4903
vn -0.9756 0.1532 -0.1576
vn -0.2558 -0.3101 -0.9156
vn 0.3999 -0.1296 -0.9073
vn 0.1603 0.6671 0.7275
vn 0.5764 0.7012 0.4196
vn -0.9078 0.3786 -0.1803
vn -0.4811 0.5424 -0.6887
vn 0.2578 0.9556 -0.1429
vn -0.4052 -0.5827 0.7044
vn -0.8899 -0.2036 0.4082
usemtl None
s off
f 73//46 74//46 75//46
f 74//47 73//47 78//47
f 73//48 75//48 76//48
f 73//49 76//49 77//49
f 73//50 77//50 78//50
f 74//51 78//51 83//51
f 75//52 74//52 79//52
f 76//53 75//53 80//53
f 77//54 76//54 81//54
f 78//55 77//55 82//55
f 74//56 83//56 79//56
f 75//57 79//57 80//57
f 76//58 80//58 81//58
f 77//59 81//59 82//59
f 78//60 82//60 83//60
f 79//61 83//61 84//61
f 80//62 79//62 84//62
f 81//63 80//63 84//63
f 82//64 81//64 84//64
f 83//65 82//65 84//65
f 85//46 86//46 87//46
f 86//47 85//47 90//47
f 85//48 87//48 88//48
f 85//49 88//49 89//49
f 85//50 89//50 90//50
f 86//51 90//51 95//51
f 87//52 86//52 91//52
f 88//66 87//66 92//66
f 89//54 88//54 93//54
f 90//55 89//55 94//55
f 86//56 95//56 91//56
f 87//57 91//57 92//57
f 88//58 92//58 93//58
f 89//59 93//59 94//59
f 90//60 94//60 95//60
f 91//61 95//61 96//61
f 92//62 91//62 96//62
f 93//63 92//63 96//63
f 94//64 93//64 96//64
f 95//65 94//65 96//65
f 97//46 98//46 99//46
f 98//47 97//47 102//47
f 97//48 99//48 100//48
f 97//49 100//49 101//49
f 97//50 101//50 102//50
f 98//51 102//51 107//51
f 99//67 98//67 103//67
f 100//66 99//66 104//66
f 101//54 100//54 105//54
f 102//55 101//55 106//55
f 98//56 107//56 103//56
f 99//57 103//57 104//57
f 100//58 104//58 105//58
f 101//59 105//59 106//59
f 102//60 106//60 107//60
f 103//61 107//61 108//61
f 104//62 103//62 108//62
f 105//63 104//63 108//63
f 106//64 105//64 108//64
f 107//65 106//65 108//65
o Icosphere.003
v 13.751452 6.576354 -5.190339
v 13.685600 6.687168 -3.997571
v 13.746943 6.515903 -3.949290
v 13.067535 6.687168 -4.198390
v 13.260809 6.520581 -4.538524
v 13.915607 6.652242 -4.681824
v 13.499643 7.004028 -4.244888
v 13.076636 7.110998 -3.842555
v 13.192993 6.991623 -4.679129
v 13.659157 7.165143 -4.868146
v 14.528355 6.991623 -4.460236
v 13.292589 7.320666 -4.489594
v 13.274638 7.356604 -6.433098
v 13.208786 7.467418 -5.240331
v 13.270128 7.296152 -5.192049
v 12.590721 7.467418 -5.441149
v 12.783994 7.300831 -5.781283
v 13.438792 7.432492 -5.924583
v 13.022829 7.784277 -5.487647
v 12.599821 7.891248 -5.085314
v 12.716179 7.771873 -5.921888
v 13.182343 7.945393 -6.110905
v 14.051540 7.771873 -5.702995
v 12.815775 8.100916 -5.732353
v 14.514355 7.172268 -5.670196
v 14.448503 7.283081 -4.477428
v 14.509846 7.111816 -4.429147
v 13.830439 7.283081 -4.678246
v 14.023711 7.116495 -5.018380
v 14.678510 7.248156 -5.161681
v 14.262546 7.599941 -4.724744
v 13.839539 7.706912 -4.322411
v 13.955896 7.587536 -5.158986
v 14.422059 7.761057 -5.348002
v 15.291258 7.587536 -4.940093
v 14.055491 7.916579 -4.969451
vn 0.9394 0.3421 0.0201
vn 0.1467 -0.9842 0.0995
vn -0.2275 -0.9726 -0.0482
vn 0.7835 -0.2513 0.5683
vn -0.2127 0.9741 -0.0767
vn 0.4232 -0.8864 0.1875
vn -0.8899 -0.2037 0.4082
vn -0.4052 -0.5827 0.7045
vn -0.8897 -0.2434 -0.3863
vn -0.1208 -0.3918 -0.9121
vn 0.1608 0.6642 0.7300
vn 0.6210 0.6115 0.4903
vn -0.9756 0.1532 -0.1576
vn -0.2558 -0.3101 -0.9156
vn 0.3999 -0.1296 -0.9073
vn 0.1603 0.6671 0.7275
vn 0.5764 0.7012 0.4196
vn -0.9078 0.3786 -0.1803
vn -0.4811 0.5424 -0.6887
vn 0.2578 0.9556 -0.1429
vn -0.4052 -0.5827 0.7044
usemtl None
s off
f 109//68 110//68 111//68
f 110//69 109//69 114//69
f 109//70 111//70 112//70
f 109//71 112//71 113//71
f 109//72 113//72 114//72
f 110//73 114//73 119//73
f 111//74 110//74 115//74
f 112//75 111//75 116//75
f 113//76 112//76 117//76
f 114//77 113//77 118//77
f 110//78 119//78 115//78
f 111//79 115//79 116//79
f 112//80 116//80 117//80
f 113//81 117//81 118//81
f 114//82 118//82 119//82
f 115//83 119//83 120//83
f 116//84 115//84 120//84
f 117//85 116//85 120//85
f 118//86 117//86 120//86
f 119//87 118//87 120//87
f 121//68 122//68 123//68
f 122//69 121//69 126//69
f 121//70 123//70 124//70
f 121//71 124//71 125//71
f 121//72 125//72 126//72
f 122//73 126//73 131//73
f 123//74 122//74 127//74
f 124//88 123//88 128//88
f 125//76 124//76 129//76
f 126//77 125//77 130//77
f 122//78 131//78 127//78
f 123//79 127//79 128//79
f 124//80 128//80 129//80
f 125//81 129//81 130//81
f 126//82 130//82 131//82
f 127//83 131//83 132//83
f 128//84 127//84 132//84
f 129//85 128//85 132//85
f 130//86 129//86 132//86
f 131//87 130//87 132//87
f 133//68 134//68 135//68
f 134//69 133//69 138//69
f 133//70 135//70 136//70
f 133//71 136//71 137//71
f 133//72 137//72 138//72
f 134//73 138//73 143//73
f 135//74 134//74 139//74
f 136//88 135//88 140//88
f 137//76 136//76 141//76
f 138//77 137//77 142//77
f 134//78 143//78 139//78
f 135//79 139//79 140//79
f 136//80 140//80 141//80
f 137//81 141//81 142//81
f 138//82 142//82 143//82
f 139//83 143//83 144//83
f 140//84 139//84 144//84
f 141//85 140//85 144//85
f 142//86 141//86 144//86
f 143//87 142//87 144//87
